# Exported from ProBuilder
# http://www.procore3d.com/probuilder
# 9/10/2019 12:46:27 PM

mtllib ./bullet.mtl
o bullet

g Cylinder
v -0.5 0 -0.8125
v -0.5 5.960464E-08 0.1875
v -0.3535534 -0.3535534 -0.8125
v -0.3535534 -0.3535533 0.1875
v -0.3535534 -0.3535534 -0.8125
v -0.3535534 -0.3535533 0.1875
v 2.185569E-08 -0.5 -0.8125
v 2.185569E-08 -0.4999999 0.1875
v 2.185569E-08 -0.5 -0.8125
v 2.185569E-08 -0.4999999 0.1875
v 0.3535534 -0.3535534 -0.8125
v 0.3535534 -0.3535533 0.1875
v 0.3535534 -0.3535534 -0.8125
v 0.3535534 -0.3535533 0.1875
v 0.5 4.371139E-08 -0.8125
v 0.5 1.03316E-07 0.1875
v 0.5 4.371139E-08 -0.8125
v 0.5 1.03316E-07 0.1875
v 0.3535534 0.3535534 -0.8125
v 0.3535534 0.3535534 0.1875
v 0.3535534 0.3535534 -0.8125
v 0.3535534 0.3535534 0.1875
v -5.96244E-09 0.5 -0.8125001
v -5.96244E-09 0.5000001 0.1875
v -5.96244E-09 0.5 -0.8125001
v -5.96244E-09 0.5000001 0.1875
v -0.3535533 0.3535534 -0.8125
v -0.3535533 0.3535535 0.1875
v -0.3535533 0.3535534 -0.8125
v -0.3535533 0.3535535 0.1875
v -0.5 0 -0.8125
v -0.5 5.960464E-08 0.1875
v -0.5 0 -0.8125
v 0 0 -0.8125
v -0.3535534 -0.3535534 -0.8125
v -0.5 5.960464E-08 0.1875
v 0 5.215406E-08 0.8125
v -0.3535534 -0.3535533 0.1875
v -0.3535534 -0.3535534 -0.8125
v 0 0 -0.8125
v 2.185569E-08 -0.5 -0.8125
v -0.3535534 -0.3535533 0.1875
v 0 5.215406E-08 0.8125
v 2.185569E-08 -0.4999999 0.1875
v 2.185569E-08 -0.5 -0.8125
v 0 0 -0.8125
v 0.3535534 -0.3535534 -0.8125
v 2.185569E-08 -0.4999999 0.1875
v 0 5.215406E-08 0.8125
v 0.3535534 -0.3535533 0.1875
v 0.3535534 -0.3535534 -0.8125
v 0 0 -0.8125
v 0.5 4.371139E-08 -0.8125
v 0.3535534 -0.3535533 0.1875
v 0 5.215406E-08 0.8125
v 0.5 1.03316E-07 0.1875
v 0.5 4.371139E-08 -0.8125
v 0 0 -0.8125
v 0.3535534 0.3535534 -0.8125
v 0.5 1.03316E-07 0.1875
v 0 5.215406E-08 0.8125
v 0.3535534 0.3535534 0.1875
v 0.3535534 0.3535534 -0.8125
v 0 0 -0.8125
v -5.96244E-09 0.5 -0.8125001
v 0.3535534 0.3535534 0.1875
v 0 5.215406E-08 0.8125
v -5.96244E-09 0.5000001 0.1875
v -5.96244E-09 0.5 -0.8125001
v 0 0 -0.8125
v -0.3535533 0.3535534 -0.8125
v -5.96244E-09 0.5000001 0.1875
v 0 5.215406E-08 0.8125
v -0.3535533 0.3535535 0.1875
v -0.3535533 0.3535534 -0.8125
v 0 0 -0.8125
v -0.5 0 -0.8125
v -0.3535533 0.3535535 0.1875
v 0 5.215406E-08 0.8125
v -0.5 5.960464E-08 0.1875

vn -0.4619398 -1.490116E-08 -0.5
vn -0.8334255 5.496672E-08 0.2971886
vn -0.3266408 -0.3266408 -0.4999999
vn -0.5893208 -0.5893208 0.2971886
vn -0.3266408 -0.3266408 -0.4999999
vn -0.5893208 -0.5893208 0.2971886
vn 1.490116E-08 -0.4619398 -0.4999999
vn 2.980232E-08 -0.8334255 0.2971886
vn 1.490116E-08 -0.4619398 -0.4999999
vn 2.980232E-08 -0.8334255 0.2971886
vn 0.3266408 -0.3266408 -0.4999999
vn 0.5893208 -0.5893208 0.2971886
vn 0.3266408 -0.3266408 -0.4999999
vn 0.5893208 -0.5893208 0.2971886
vn 0.4619398 -2.980232E-08 -0.5
vn 0.8334254 1.026324E-08 0.2971886
vn 0.4619398 -2.980232E-08 -0.5
vn 0.8334254 1.026324E-08 0.2971886
vn 0.3266408 0.3266407 -0.5
vn 0.5893208 0.5893208 0.2971885
vn 0.3266408 0.3266407 -0.5
vn 0.5893208 0.5893208 0.2971885
vn 4.470348E-08 0.4619397 -0.5
vn 5.960464E-08 0.8334255 0.2971885
vn 4.470348E-08 0.4619397 -0.5
vn 5.960464E-08 0.8334255 0.2971885
vn -0.3266407 0.3266407 -0.5
vn -0.5893207 0.5893208 0.2971886
vn -0.3266407 0.3266407 -0.5
vn -0.5893207 0.5893208 0.2971886
vn -0.4619398 -1.490116E-08 -0.5
vn -0.8334255 5.496672E-08 0.2971886
vn -0.4619398 -1.490116E-08 -0.5
vn 0 -5.960464E-08 -0.9999999
vn -0.3266408 -0.3266408 -0.4999999
vn -0.8334255 5.496672E-08 0.2971886
vn 7.450581E-09 5.032879E-08 0.594377
vn -0.5893208 -0.5893208 0.2971886
vn -0.3266408 -0.3266408 -0.4999999
vn 0 -5.960464E-08 -0.9999999
vn 1.490116E-08 -0.4619398 -0.4999999
vn -0.5893208 -0.5893208 0.2971886
vn 7.450581E-09 5.032879E-08 0.594377
vn 2.980232E-08 -0.8334255 0.2971886
vn 1.490116E-08 -0.4619398 -0.4999999
vn 0 -5.960464E-08 -0.9999999
vn 0.3266408 -0.3266408 -0.4999999
vn 2.980232E-08 -0.8334255 0.2971886
vn 7.450581E-09 5.032879E-08 0.594377
vn 0.5893208 -0.5893208 0.2971886
vn 0.3266408 -0.3266408 -0.4999999
vn 0 -5.960464E-08 -0.9999999
vn 0.4619398 -2.980232E-08 -0.5
vn 0.5893208 -0.5893208 0.2971886
vn 7.450581E-09 5.032879E-08 0.594377
vn 0.8334254 1.026324E-08 0.2971886
vn 0.4619398 -2.980232E-08 -0.5
vn 0 -5.960464E-08 -0.9999999
vn 0.3266408 0.3266407 -0.5
vn 0.8334254 1.026324E-08 0.2971886
vn 7.450581E-09 5.032879E-08 0.594377
vn 0.5893208 0.5893208 0.2971885
vn 0.3266408 0.3266407 -0.5
vn 0 -5.960464E-08 -0.9999999
vn 4.470348E-08 0.4619397 -0.5
vn 0.5893208 0.5893208 0.2971885
vn 7.450581E-09 5.032879E-08 0.594377
vn 5.960464E-08 0.8334255 0.2971885
vn 4.470348E-08 0.4619397 -0.5
vn 0 -5.960464E-08 -0.9999999
vn -0.3266407 0.3266407 -0.5
vn 5.960464E-08 0.8334255 0.2971885
vn 7.450581E-09 5.032879E-08 0.594377
vn -0.5893207 0.5893208 0.2971886
vn -0.3266407 0.3266407 -0.5
vn 0 -5.960464E-08 -0.9999999
vn -0.4619398 -1.490116E-08 -0.5
vn -0.5893207 0.5893208 0.2971886
vn 7.450581E-09 5.032879E-08 0.594377
vn -0.8334255 5.496672E-08 0.2971886

vt -0.1913418 -0.8125
vt -0.1913418 0.1875
vt 0.1913417 -0.8125
vt 0.1913417 0.1875
vt -0.1913417 -0.8125
vt -0.1913417 0.1875
vt 0.1913417 -0.8125
vt 0.1913417 0.1875
vt -0.1913417 -0.8125
vt -0.1913417 0.1875
vt 0.1913417 -0.8125
vt 0.1913417 0.1875
vt -0.1913417 -0.8125
vt -0.1913417 0.1875
vt 0.1913418 -0.8125
vt 0.1913418 0.1875
vt -0.1913416 -0.8125
vt -0.1913416 0.1875
vt 0.1913417 -0.8125
vt 0.1913417 0.1875
vt -0.1913417 -0.8125
vt -0.1913417 0.1875
vt 0.1913418 -0.8125
vt 0.1913418 0.1875
vt -0.1913417 -0.8125
vt -0.1913417 0.1875
vt 0.1913416 -0.8125
vt 0.1913416 0.1875
vt -0.1913418 -0.8125
vt -0.1913418 0.1875
vt 0.1913417 -0.8125
vt 0.1913417 0.1875
vt -0.5 -4.842877E-08
vt 0 -4.842877E-08
vt -0.3535534 0.3535533
vt -0.1913418 -0.1237815
vt -3.44172E-09 0.6534015
vt 0.1913417 -0.1237815
vt -0.3535534 0.3535533
vt 0 -4.842877E-08
vt 2.185569E-08 0.4999999
vt -0.1913417 -0.1237814
vt -1.425607E-09 0.6534015
vt 0.1913417 -0.1237814
vt 2.185569E-08 0.4999999
vt 0 -4.842877E-08
vt 0.3535534 0.3535533
vt -0.1913417 -0.1237814
vt 1.425607E-09 0.6534015
vt 0.1913417 -0.1237814
vt 0.3535534 0.3535533
vt 0 -4.842877E-08
vt 0.5 -9.214016E-08
vt -0.1913417 -0.1237815
vt 3.44172E-09 0.6534015
vt 0.1913418 -0.1237815
vt 0.5 -9.214016E-08
vt 0 -4.842877E-08
vt 0.3535534 -0.3535534
vt -0.1913416 -0.1237815
vt 3.44172E-09 0.6534015
vt 0.1913417 -0.1237815
vt 0.3535534 -0.3535534
vt 0 -4.842877E-08
vt -5.96244E-09 -0.5000001
vt -0.1913417 -0.1237815
vt 1.425607E-09 0.6534015
vt 0.1913418 -0.1237815
vt -5.96244E-09 -0.5000001
vt 0 -4.842877E-08
vt -0.3535533 -0.3535535
vt -0.1913417 -0.1237815
vt -1.425607E-09 0.6534015
vt 0.1913416 -0.1237815
vt -0.3535533 -0.3535535
vt 0 -4.842877E-08
vt -0.5 -4.842877E-08
vt -0.1913418 -0.1237815
vt -3.44172E-09 0.6534014
vt 0.1913417 -0.1237815

g Cylinder_0
usemtl Yellow
f 3/3/3 4/4/4 2/2/2 1/1/1
f 7/7/7 8/8/8 6/6/6 5/5/5
f 11/11/11 12/12/12 10/10/10 9/9/9
f 15/15/15 16/16/16 14/14/14 13/13/13
f 19/19/19 20/20/20 18/18/18 17/17/17
f 23/23/23 24/24/24 22/22/22 21/21/21
f 27/27/27 28/28/28 26/26/26 25/25/25
f 31/31/31 32/32/32 30/30/30 29/29/29

g Cylinder_1
usemtl Yellow
f 33/33/33 34/34/34 35/35/35
f 39/39/39 40/40/40 41/41/41
f 45/45/45 46/46/46 47/47/47
f 51/51/51 52/52/52 53/53/53
f 57/57/57 58/58/58 59/59/59
f 63/63/63 64/64/64 65/65/65
f 69/69/69 70/70/70 71/71/71
f 75/75/75 76/76/76 77/77/77
f 38/38/38 37/37/37 36/36/36
f 44/44/44 43/43/43 42/42/42
f 50/50/50 49/49/49 48/48/48
f 56/56/56 55/55/55 54/54/54
f 62/62/62 61/61/61 60/60/60
f 68/68/68 67/67/67 66/66/66
f 74/74/74 73/73/73 72/72/72
f 80/80/80 79/79/79 78/78/78

