# Exported from ProBuilder
# http://www.procore3d.com/probuilder
# 9/11/2019 12:42:32 PM

mtllib ./TestGround.mtl
o TestGround

g Cube
v 50 -0.5 50
v -50 -0.25 50
v 50 0.25 50
v -50 0.5 50
v -50 -0.25 50
v -50 -0.25 -50
v -50 0.5 50
v -50 0.5 -50
v -50 -0.25 -50
v 49.875 -0.25 -50
v -50 0.5 -50
v 49.875 0.5 -50
v 49.875 -0.25 -50
v 50 -0.5 50
v 49.875 0.5 -50
v 50 0.25 50
v 50 0.25 50
v -50 0.5 50
v 49.875 0.5 -50
v -50 0.5 -50
v 49.875 -0.25 -50
v -50 -0.25 -50
v 50 -0.5 50
v -50 -0.25 50

vn 0 0 1
vn 0 0 1
vn 0 0 1
vn 0 0 1
vn -1 0 0
vn -1 0 0
vn -1 0 0
vn -1 0 0
vn 0 0 -1
vn 0 0 -1
vn 0 0 -1
vn 0 0 -1
vn 0.9999992 0 -0.001249999
vn 0.9999992 0 -0.001249999
vn 0.9999992 0 -0.001249999
vn 0.9999992 0 -0.001249999
vn 0.00125078 0.9999985 0.001249216
vn 0.002499992 0.9999968 0
vn 0 0.9999969 0.002499992
vn 0.00125078 0.9999985 0.001249216
vn -0.00125078 -0.9999985 -0.001249216
vn 0 -1 0
vn -0.002499984 -0.9999937 -0.002496859
vn -0.00125078 -0.9999985 -0.001249216

vt 50 -0.5
vt -50 -0.25
vt 50 0.25
vt -50 0.5
vt 50 -0.25
vt -50 -0.25
vt 50 0.5
vt -50 0.5
vt 50 -0.25
vt -49.875 -0.25
vt 50 0.5
vt -49.875 0.5
vt 49.93762 -0.25
vt -50.06246 -0.5
vt 49.93762 0.5
vt -50.06246 0.25
vt -49.99922 49.99891
vt 50.00109 49.99891
vt -49.8736 -50.0014
vt 50.00109 -50.00078
vt 49.875 -49.99922
vt -50 -49.99922
vt 50 50.00109
vt -50 50.00047

g Cube
usemtl samsung_icon
f 3/3/3 4/4/4 2/2/2 1/1/1
f 7/7/7 8/8/8 6/6/6 5/5/5
f 11/11/11 12/12/12 10/10/10 9/9/9
f 15/15/15 16/16/16 14/14/14 13/13/13
f 19/19/19 20/20/20 18/18/18 17/17/17
f 23/23/23 24/24/24 22/22/22 21/21/21

